<?xml version="1.0" encoding="UTF-8"?>
<!DOCTYPE svg PUBLIC "-//W3C//DTD SVG 1.1//EN" "http://www.w3.org/Graphics/SVG/1.1/DTD/svg11.dtd">
<!-- Creator: Corel DESIGNER X5 -->
<svg xmlns="http://www.w3.org/2000/svg" xml:space="preserve" width="11in" height="8.5in" style="shape-rendering:geometricPrecision; text-rendering:geometricPrecision; image-rendering:optimizeQuality; fill-rule:evenodd; clip-rule:evenodd"
viewBox="0 0 11000 8500"
 xmlns:xlink="http://www.w3.org/1999/xlink">
 <defs>
  <style type="text/css">
   <![CDATA[
    .str4 {stroke:#0098DA;stroke-width:3;stroke-linecap:round;stroke-linejoin:round}
    .str2 {stroke:#373435;stroke-width:6.94488;stroke-linecap:round;stroke-linejoin:round}
    .str3 {stroke:#00AFEF;stroke-width:6.94488;stroke-linecap:round;stroke-linejoin:round}
    .str0 {stroke:#ED3237;stroke-width:6.94488;stroke-linecap:round;stroke-linejoin:round;stroke-opacity:0.250980}
    .str5 {stroke:#3E4095;stroke-width:41.6654;stroke-linecap:round;stroke-linejoin:round}
    .str1 {stroke:#373435;stroke-width:6.94488;stroke-linecap:round;stroke-linejoin:round;stroke-dasharray:86.791339 52.074803 17.358268 52.074803}
    .fil1 {fill:none}
    .fil48 {fill:none;fill-rule:nonzero}
    .fil2 {fill:#606062}
    .fil35 {fill:#636466}
    .fil36 {fill:#646567}
    .fil3 {fill:#696A6C}
    .fil34 {fill:#696B6D}
    .fil37 {fill:#6E6F71}
    .fil33 {fill:#6F7173}
    .fil4 {fill:#717375}
    .fil32 {fill:#757679}
    .fil38 {fill:#77797B}
    .fil5 {fill:#7A7B7E}
    .fil31 {fill:#7B7C7E}
    .fil30 {fill:#808284}
    .fil39 {fill:#818385}
    .fil6 {fill:#838587}
    .fil29 {fill:#86878A}
    .fil40 {fill:#8A8C8E}
    .fil7 {fill:#8B8D90}
    .fil28 {fill:#919395}
    .fil41 {fill:#939597}
    .fil8 {fill:#949698}
    .fil27 {fill:#97999B}
    .fil9 {fill:#9C9EA1}
    .fil26 {fill:#A3A5A8}
    .fil10 {fill:#A6A8AB}
    .fil25 {fill:#A9ABAE}
    .fil11 {fill:#AFB1B4}
    .fil42 {fill:#B1B3B5}
    .fil24 {fill:#B6B8BA}
    .fil12 {fill:#B9BBBD}
    .fil43 {fill:#BBBDBF}
    .fil23 {fill:#BCBEC0}
    .fil22 {fill:#C2C4C6}
    .fil13 {fill:#C3C5C7}
    .fil44 {fill:#C6C7C9}
    .fil21 {fill:#C9CBCC}
    .fil14 {fill:#CDCED0}
    .fil20 {fill:#CFD1D2}
    .fil45 {fill:#D0D2D3}
    .fil19 {fill:#D6D7D9}
    .fil15 {fill:#D7D8D9}
    .fil18 {fill:#DCDDDF}
    .fil16 {fill:#E0E1E2}
    .fil17 {fill:#E3E4E5}
    .fil46 {fill:#E6E7E8}
    .fil49 {fill:#373435;fill-rule:nonzero}
    .fil50 {fill:#0098DA;fill-rule:nonzero}
    .fil47 {fill:#FFF212;fill-rule:nonzero}
    .fil0 {fill:#ED3237;fill-opacity:0.250980}
   ]]>
  </style>
    <clipPath id="id0">
     <path d="M3998 1460l364 98 -168 613 -378 233 -174 706 224 359 -218 759 -364 -98 716 -2670z"/>
    </clipPath>
    <clipPath id="id1">
     <path d="M7168 6060l-364 -98 168 -613 378 -233 174 -706 -224 -359 218 -759 364 98 -716 2670z"/>
    </clipPath>
    <mask id="id2">
  <linearGradient id="id3" gradientUnits="userSpaceOnUse" x1="7967.1" y1="4414" x2="7781.85" y2="5105.33">
   <stop offset="0" style="stop-opacity:1; stop-color:white"/>
   <stop offset="1" style="stop-opacity:0; stop-color:white"/>
  </linearGradient>
     <rect style="fill:url(#id3)" x="7709" y="4363" width="331" height="793"/>
    </mask>
    <mask id="id4">
  <radialGradient id="id5" gradientUnits="userSpaceOnUse" cx="4106.96" cy="1624.54" r="463.47" fx="4106.96" fy="1624.54">
   <stop offset="0" style="stop-opacity:0; stop-color:white"/>
   <stop offset="1" style="stop-opacity:1; stop-color:white"/>
  </radialGradient>
     <rect style="fill:url(#id5)" x="3659" y="1505" width="826" height="598"/>
    </mask>
    <mask id="id6">
  <radialGradient id="id7" gradientUnits="userSpaceOnUse" cx="3689.01" cy="2695.4" r="448.539" fx="3689.01" fy="2695.4">
   <stop offset="0" style="stop-opacity:0; stop-color:white"/>
   <stop offset="1" style="stop-opacity:1; stop-color:white"/>
  </radialGradient>
     <rect style="fill:url(#id7)" x="3240" y="2232" width="905" height="934"/>
    </mask>
    <mask id="id8">
  <linearGradient id="id9" gradientUnits="userSpaceOnUse" x1="2455.64" y1="2015.55" x2="2270.4" y2="2706.89">
   <stop offset="0" style="stop-opacity:1; stop-color:white"/>
   <stop offset="1" style="stop-opacity:0; stop-color:white"/>
  </linearGradient>
     <rect style="fill:url(#id9)" x="2198" y="1964" width="331" height="793"/>
    </mask>
    <mask id="id10">
  <radialGradient id="id11" gradientUnits="userSpaceOnUse" cx="10271.9" cy="3948.16" r="128.87" fx="10271.9" fy="3948.16">
   <stop offset="0" style="stop-opacity:0; stop-color:white"/>
   <stop offset="1" style="stop-opacity:1; stop-color:white"/>
  </radialGradient>
     <rect style="fill:url(#id11)" x="10143" y="3607" width="457" height="893"/>
    </mask>
    <mask id="id12">
  <radialGradient id="id13" gradientUnits="userSpaceOnUse" cx="614.402" cy="3355.73" r="128.87" fx="614.402" fy="3355.73">
   <stop offset="0" style="stop-opacity:0; stop-color:white"/>
   <stop offset="1" style="stop-opacity:1; stop-color:white"/>
  </radialGradient>
     <rect style="fill:url(#id13)" x="486" y="3015" width="457" height="893"/>
    </mask>
 </defs>
 <g id="Layer_x0020_1">
  <metadata id="CorelCorpID_0Corel-Layer"/>
  <polygon class="fil0 str0" points="3764,2587 3708,2812 692,2812 692,2587 "/>
  <polygon class="fil0 str0" points="7519,4750 7459,4975 3646,2773 3706,2549 "/>
  <polygon class="fil0 str0" points="602,4931 10404,4931 10404,4707 602,4707 "/>
  <line class="fil1 str1" x1="3698" y1="5064" x2="3698" y2= "2377" />
  <line class="fil1 str1" x1="3981" y1="3883" x2="8617" y2= "5125" />
  <line class="fil1 str1" x1="1761" y1="2179" x2="7034" y2= "3592" />
  <line class="fil1 str1" x1="3699" y1="2691" x2="7671" y2= "2691" />
  <g>
   <g style="clip-path:url(#id0)">
    <polygon class="fil2" points="2728,930 5747,1739 4938,4758 1919,3949 2728,930 2772,1006 5670,1783 4894,4681 1995,3905 2772,1006 "/>
    <polygon id="1" class="fil3" points="2750,968 5709,1761 4916,4719 1957,3927 2750,968 2794,1044 5632,1805 4872,4643 2034,3882 2794,1044 "/>
    <polygon id="12" class="fil4" points="2772,1006 5670,1783 4894,4681 1995,3905 2772,1006 2816,1083 5594,1827 4850,4605 2072,3860 2816,1083 "/>
    <polygon id="123" class="fil5" points="2794,1044 5632,1805 4872,4643 2034,3882 2794,1044 2838,1121 5556,1849 4828,4566 2110,3838 2838,1121 "/>
    <polygon id="1234" class="fil6" points="2816,1083 5594,1827 4850,4605 2072,3860 2816,1083 2860,1159 5517,1871 4805,4528 2149,3816 2860,1159 "/>
    <polygon id="12345" class="fil7" points="2838,1121 5556,1849 4828,4566 2110,3838 2838,1121 2883,1198 5479,1893 4783,4490 2187,3794 2883,1198 "/>
    <polygon id="123456" class="fil8" points="2860,1159 5517,1871 4805,4528 2149,3816 2860,1159 2905,1236 5441,1915 4761,4452 2225,3772 2905,1236 "/>
    <polygon id="1234567" class="fil9" points="2883,1198 5479,1893 4783,4490 2187,3794 2883,1198 2927,1274 5403,1938 4739,4413 2263,3750 2927,1274 "/>
    <polygon id="12345678" class="fil10" points="2905,1236 5441,1915 4761,4452 2225,3772 2905,1236 2949,1312 5364,1960 4717,4375 2302,3728 2949,1312 "/>
    <polygon id="123456789" class="fil11" points="2927,1274 5403,1938 4739,4413 2263,3750 2927,1274 2971,1351 5326,1982 4695,4337 2340,3706 2971,1351 "/>
    <polygon id="12345678910" class="fil12" points="2949,1312 5364,1960 4717,4375 2302,3728 2949,1312 2993,1389 5288,2004 4673,4298 2378,3684 2993,1389 "/>
    <polygon id="1234567891011" class="fil13" points="2971,1351 5326,1982 4695,4337 2340,3706 2971,1351 3015,1427 5249,2026 4651,4260 2417,3661 3015,1427 "/>
    <polygon id="123456789101112" class="fil14" points="2993,1389 5288,2004 4673,4298 2378,3684 2993,1389 3037,1466 5211,2048 4629,4222 2455,3639 3037,1466 "/>
    <polygon id="12345678910111213" class="fil15" points="3015,1427 5249,2026 4651,4260 2417,3661 3015,1427 3059,1504 5173,2070 4607,4184 2493,3617 3059,1504 "/>
    <polygon id="1234567891011121314" class="fil16" points="3037,1466 5211,2048 4629,4222 2455,3639 3037,1466 3082,1542 5135,2092 4584,4145 2531,3595 3082,1542 "/>
    <polygon id="123456789101112131415" class="fil17" points="3059,1504 5173,2070 4607,4184 2493,3617 3059,1504 3104,1580 5096,2114 4562,4107 2570,3573 3104,1580 "/>
    <polygon id="12345678910111213141516" class="fil18" points="3082,1542 5135,2092 4584,4145 2531,3595 3082,1542 3126,1619 5058,2136 4540,4069 2608,3551 3126,1619 "/>
    <polygon id="1234567891011121314151617" class="fil19" points="3104,1580 5096,2114 4562,4107 2570,3573 3104,1580 3148,1657 5020,2159 4518,4030 2646,3529 3148,1657 "/>
    <polygon id="123456789101112131415161718" class="fil20" points="3126,1619 5058,2136 4540,4069 2608,3551 3126,1619 3170,1695 4981,2181 4496,3992 2685,3507 3170,1695 "/>
    <polygon id="12345678910111213141516171819" class="fil21" points="3148,1657 5020,2159 4518,4030 2646,3529 3148,1657 3192,1734 4943,2203 4474,3954 2723,3485 3192,1734 "/>
    <polygon id="1234567891011121314151617181920" class="fil22" points="3170,1695 4981,2181 4496,3992 2685,3507 3170,1695 3214,1772 4905,2225 4452,3916 2761,3463 3214,1772 "/>
    <polygon id="123456789101112131415161718192021" class="fil23" points="3192,1734 4943,2203 4474,3954 2723,3485 3192,1734 3236,1810 4867,2247 4430,3877 2799,3440 3236,1810 "/>
    <polygon id="12345678910111213141516171819202122" class="fil24" points="3214,1772 4905,2225 4452,3916 2761,3463 3214,1772 3258,1848 4828,2269 4408,3839 2838,3418 3258,1848 "/>
    <polygon id="1234567891011121314151617181920212223" class="fil11" points="3236,1810 4867,2247 4430,3877 2799,3440 3236,1810 3280,1887 4790,2291 4386,3801 2876,3396 3280,1887 "/>
    <polygon id="123456789101112131415161718192021222324" class="fil25" points="3258,1848 4828,2269 4408,3839 2838,3418 3258,1848 3303,1925 4752,2313 4363,3762 2914,3374 3303,1925 "/>
    <polygon id="12345678910111213141516171819202122232425" class="fil26" points="3280,1887 4790,2291 4386,3801 2876,3396 3280,1887 3325,1963 4713,2335 4341,3724 2953,3352 3325,1963 "/>
    <polygon id="1234567891011121314151617181920212223242526" class="fil9" points="3303,1925 4752,2313 4363,3762 2914,3374 3303,1925 3347,2002 4675,2357 4319,3686 2991,3330 3347,2002 "/>
    <polygon id="123456789101112131415161718192021222324252627" class="fil27" points="3325,1963 4713,2335 4341,3724 2952,3352 3325,1963 3369,2040 4637,2380 4297,3648 3029,3308 3369,2040 "/>
    <polygon id="12345678910111213141516171819202122232425262728" class="fil28" points="3347,2002 4675,2357 4319,3686 2991,3330 3347,2002 3391,2078 4599,2402 4275,3609 3067,3286 3391,2078 "/>
    <polygon id="1234567891011121314151617181920212223242526272829" class="fil7" points="3369,2040 4637,2380 4297,3648 3029,3308 3369,2040 3413,2116 4560,2424 4253,3571 3106,3264 3413,2116 "/>
    <polygon id="123456789101112131415161718192021222324252627282930" class="fil29" points="3391,2078 4599,2402 4275,3609 3067,3286 3391,2078 3435,2155 4522,2446 4231,3533 3144,3242 3435,2155 "/>
    <polygon id="12345678910111213141516171819202122232425262728293031" class="fil30" points="3413,2116 4560,2424 4253,3571 3106,3264 3413,2116 3457,2193 4484,2468 4209,3494 3182,3219 3457,2193 "/>
    <polygon id="1234567891011121314151617181920212223242526272829303132" class="fil31" points="3435,2155 4522,2446 4231,3533 3144,3242 3435,2155 3479,2231 4445,2490 4187,3456 3220,3197 3479,2231 "/>
    <polygon id="123456789101112131415161718192021222324252627282930313233" class="fil32" points="3457,2193 4484,2468 4209,3494 3182,3219 3457,2193 3501,2269 4407,2512 4164,3418 3259,3175 3501,2269 "/>
    <polygon id="12345678910111213141516171819202122232425262728293031323334" class="fil33" points="3479,2231 4445,2490 4187,3456 3220,3197 3479,2231 3524,2308 4369,2534 4142,3380 3297,3153 3524,2308 "/>
    <polygon id="1234567891011121314151617181920212223242526272829303132333435" class="fil34" points="3501,2269 4407,2512 4164,3418 3259,3175 3501,2269 3546,2346 4331,2556 4120,3341 3335,3131 3546,2346 "/>
    <polygon id="123456789101112131415161718192021222324252627282930313233343536" class="fil35" points="3524,2308 4369,2534 4142,3380 3297,3153 3524,2308 3568,2384 4292,2578 4098,3303 3374,3109 3568,2384 "/>
    <polygon id="12345678910111213141516171819202122232425262728293031323334353637" class="fil36" points="3546,2346 4331,2556 4120,3341 3335,3131 3546,2346 3590,2423 4254,2601 4076,3265 3412,3087 3590,2423 "/>
    <polygon id="1234567891011121314151617181920212223242526272829303132333435363738" class="fil37" points="3568,2384 4292,2578 4098,3303 3374,3109 3568,2384 3612,2461 4216,2623 4054,3227 3450,3065 3612,2461 "/>
    <polygon id="123456789101112131415161718192021222324252627282930313233343536373839" class="fil38" points="3590,2423 4254,2601 4076,3265 3412,3087 3590,2423 3634,2499 4177,2645 4032,3188 3488,3043 3634,2499 "/>
    <polygon id="12345678910111213141516171819202122232425262728293031323334353637383940" class="fil39" points="3612,2461 4216,2623 4054,3227 3450,3065 3612,2461 3656,2537 4139,2667 4010,3150 3527,3021 3656,2537 "/>
    <polygon id="1234567891011121314151617181920212223242526272829303132333435363738394041" class="fil40" points="3634,2499 4177,2645 4032,3188 3488,3043 3634,2499 3678,2576 4101,2689 3988,3112 3565,2998 3678,2576 "/>
    <polygon id="123456789101112131415161718192021222324252627282930313233343536373839404142" class="fil41" points="3656,2537 4139,2667 4010,3150 3527,3021 3656,2537 3700,2614 4063,2711 3966,3073 3603,2976 3700,2614 "/>
    <polygon id="12345678910111213141516171819202122232425262728293031323334353637383940414243" class="fil9" points="3678,2576 4101,2689 3988,3112 3565,2998 3678,2576 3722,2652 4024,2733 3943,3035 3642,2954 3722,2652 "/>
    <polygon id="1234567891011121314151617181920212223242526272829303132333435363738394041424344" class="fil10" points="3700,2614 4063,2711 3966,3073 3603,2976 3700,2614 3745,2691 3986,2755 3921,2997 3680,2932 3745,2691 "/>
    <polygon id="123456789101112131415161718192021222324252627282930313233343536373839404142434445" class="fil42" points="3722,2652 4024,2733 3943,3035 3642,2954 3722,2652 3767,2729 3948,2777 3899,2959 3718,2910 3767,2729 "/>
    <polygon id="12345678910111213141516171819202122232425262728293031323334353637383940414243444546" class="fil43" points="3745,2691 3986,2755 3921,2997 3680,2932 3745,2691 3789,2767 3910,2800 3877,2920 3756,2888 3789,2767 "/>
    <polygon id="1234567891011121314151617181920212223242526272829303132333435363738394041424344454647" class="fil44" points="3767,2729 3948,2777 3899,2959 3718,2910 3767,2729 3811,2805 3871,2822 3855,2882 3795,2866 3811,2805 "/>
    <polygon id="123456789101112131415161718192021222324252627282930313233343536373839404142434445464748" class="fil45" points="3789,2767 3910,2800 3877,2920 3756,2888 3789,2767 3833,2844 3833,2844 3833,2844 3833,2844 3833,2844 "/>
    <polygon id="12345678910111213141516171819202122232425262728293031323334353637383940414243444546474849" class="fil46" points="3811,2805 3871,2822 3855,2882 3795,2866 3811,2805 "/>
   </g>
   <polygon id="1234567891011121314151617181920212223242526272829303132333435363738394041424344454647484950" class="fil1 str2" points="3998,1460 4362,1557 4194,2170 3816,2403 3641,3109 3865,3468 3646,4228 3282,4130 "/>
  </g>
  <g>
   <g style="clip-path:url(#id1)">
    <polygon class="fil2" points="8438,6590 5419,5781 6228,2762 9247,3571 8438,6590 8394,6514 5495,5737 6272,2839 9170,3615 8394,6514 "/>
    <polygon id="1" class="fil3" points="8416,6552 5457,5759 6250,2801 9209,3593 8416,6552 8372,6476 5534,5715 6294,2877 9132,3638 8372,6476 "/>
    <polygon id="12" class="fil4" points="8394,6514 5495,5737 6272,2839 9170,3615 8394,6514 8350,6437 5572,5693 6316,2915 9094,3660 8350,6437 "/>
    <polygon id="123" class="fil5" points="8372,6476 5534,5715 6294,2877 9132,3638 8372,6476 8327,6399 5610,5671 6338,2954 9056,3682 8327,6399 "/>
    <polygon id="1234" class="fil6" points="8350,6437 5572,5693 6316,2915 9094,3660 8350,6437 8305,6361 5649,5649 6360,2992 9017,3704 8305,6361 "/>
    <polygon id="12345" class="fil7" points="8327,6399 5610,5671 6338,2954 9056,3682 8327,6399 8283,6322 5687,5627 6383,3030 8979,3726 8283,6322 "/>
    <polygon id="123456" class="fil8" points="8305,6361 5649,5649 6360,2992 9017,3704 8305,6361 8261,6284 5725,5605 6405,3069 8941,3748 8261,6284 "/>
    <polygon id="1234567" class="fil9" points="8283,6322 5687,5627 6383,3030 8979,3726 8283,6322 8239,6246 5763,5582 6427,3107 8902,3770 8239,6246 "/>
    <polygon id="12345678" class="fil10" points="8261,6284 5725,5605 6405,3068 8941,3748 8261,6284 8217,6208 5802,5560 6449,3145 8864,3792 8217,6208 "/>
    <polygon id="123456789" class="fil11" points="8239,6246 5763,5582 6427,3107 8902,3770 8239,6246 8195,6169 5840,5538 6471,3183 8826,3814 8195,6169 "/>
    <polygon id="12345678910" class="fil12" points="8217,6208 5802,5560 6449,3145 8864,3792 8217,6208 8173,6131 5878,5516 6493,3222 8788,3836 8173,6131 "/>
    <polygon id="1234567891011" class="fil13" points="8195,6169 5840,5538 6471,3183 8826,3814 8195,6169 8151,6093 5917,5494 6515,3260 8749,3859 8151,6093 "/>
    <polygon id="123456789101112" class="fil14" points="8173,6131 5878,5516 6493,3222 8788,3836 8173,6131 8129,6054 5955,5472 6537,3298 8711,3881 8129,6054 "/>
    <polygon id="12345678910111213" class="fil15" points="8151,6093 5916,5494 6515,3260 8749,3859 8151,6093 8106,6016 5993,5450 6559,3336 8673,3903 8106,6016 "/>
    <polygon id="1234567891011121314" class="fil16" points="8129,6054 5955,5472 6537,3298 8711,3881 8129,6054 8084,5978 6031,5428 6581,3375 8634,3925 8084,5978 "/>
    <polygon id="123456789101112131415" class="fil17" points="8106,6016 5993,5450 6559,3336 8673,3903 8106,6016 8062,5940 6070,5406 6604,3413 8596,3947 8062,5940 "/>
    <polygon id="12345678910111213141516" class="fil18" points="8084,5978 6031,5428 6581,3375 8634,3925 8084,5978 8040,5901 6108,5384 6626,3451 8558,3969 8040,5901 "/>
    <polygon id="1234567891011121314151617" class="fil19" points="8062,5940 6070,5406 6604,3413 8596,3947 8062,5940 8018,5863 6146,5361 6648,3490 8520,3991 8018,5863 "/>
    <polygon id="123456789101112131415161718" class="fil20" points="8040,5901 6108,5384 6626,3451 8558,3969 8040,5901 7996,5825 6184,5339 6670,3528 8481,4013 7996,5825 "/>
    <polygon id="12345678910111213141516171819" class="fil21" points="8018,5863 6146,5361 6648,3490 8520,3991 8018,5863 7974,5786 6223,5317 6692,3566 8443,4035 7974,5786 "/>
    <polygon id="1234567891011121314151617181920" class="fil22" points="7996,5825 6184,5339 6670,3528 8481,4013 7996,5825 7952,5748 6261,5295 6714,3604 8405,4057 7952,5748 "/>
    <polygon id="123456789101112131415161718192021" class="fil23" points="7974,5786 6223,5317 6692,3566 8443,4035 7974,5786 7930,5710 6299,5273 6736,3643 8367,4080 7930,5710 "/>
    <polygon id="12345678910111213141516171819202122" class="fil24" points="7952,5748 6261,5295 6714,3604 8405,4057 7952,5748 7908,5672 6338,5251 6758,3681 8328,4102 7908,5672 "/>
    <polygon id="1234567891011121314151617181920212223" class="fil11" points="7930,5710 6299,5273 6736,3643 8366,4080 7930,5710 7885,5633 6376,5229 6780,3719 8290,4124 7885,5633 "/>
    <polygon id="123456789101112131415161718192021222324" class="fil25" points="7908,5672 6338,5251 6758,3681 8328,4102 7908,5672 7863,5595 6414,5207 6802,3758 8252,4146 7863,5595 "/>
    <polygon id="12345678910111213141516171819202122232425" class="fil26" points="7885,5633 6376,5229 6780,3719 8290,4124 7885,5633 7841,5557 6452,5185 6825,3796 8213,4168 7841,5557 "/>
    <polygon id="1234567891011121314151617181920212223242526" class="fil9" points="7863,5595 6414,5207 6802,3758 8252,4146 7863,5595 7819,5518 6491,5163 6847,3834 8175,4190 7819,5518 "/>
    <polygon id="123456789101112131415161718192021222324252627" class="fil27" points="7841,5557 6452,5185 6825,3796 8213,4168 7841,5557 7797,5480 6529,5140 6869,3872 8137,4212 7797,5480 "/>
    <polygon id="12345678910111213141516171819202122232425262728" class="fil28" points="7819,5518 6491,5163 6847,3834 8175,4190 7819,5518 7775,5442 6567,5118 6891,3911 8099,4234 7775,5442 "/>
    <polygon id="1234567891011121314151617181920212223242526272829" class="fil7" points="7797,5480 6529,5140 6869,3872 8137,4212 7797,5480 7753,5404 6606,5096 6913,3949 8060,4256 7753,5404 "/>
    <polygon id="123456789101112131415161718192021222324252627282930" class="fil29" points="7775,5442 6567,5118 6891,3911 8099,4234 7775,5442 7731,5365 6644,5074 6935,3987 8022,4278 7731,5365 "/>
    <polygon id="12345678910111213141516171819202122232425262728293031" class="fil30" points="7753,5404 6606,5096 6913,3949 8060,4256 7753,5404 7709,5327 6682,5052 6957,4026 7984,4301 7709,5327 "/>
    <polygon id="1234567891011121314151617181920212223242526272829303132" class="fil31" points="7731,5365 6644,5074 6935,3987 8022,4278 7731,5365 7687,5289 6720,5030 6979,4064 7945,4323 7687,5289 "/>
    <polygon id="123456789101112131415161718192021222324252627282930313233" class="fil32" points="7709,5327 6682,5052 6957,4026 7984,4301 7709,5327 7664,5251 6759,5008 7001,4102 7907,4345 7664,5251 "/>
    <polygon id="12345678910111213141516171819202122232425262728293031323334" class="fil33" points="7687,5289 6720,5030 6979,4064 7945,4323 7687,5289 7642,5212 6797,4986 7023,4140 7869,4367 7642,5212 "/>
    <polygon id="1234567891011121314151617181920212223242526272829303132333435" class="fil34" points="7664,5251 6759,5008 7001,4102 7907,4345 7664,5251 7620,5174 6835,4964 7046,4179 7831,4389 7620,5174 "/>
    <polygon id="123456789101112131415161718192021222324252627282930313233343536" class="fil35" points="7642,5212 6797,4986 7023,4140 7869,4367 7642,5212 7598,5136 6874,4942 7068,4217 7792,4411 7598,5136 "/>
    <polygon id="12345678910111213141516171819202122232425262728293031323334353637" class="fil36" points="7620,5174 6835,4964 7046,4179 7831,4389 7620,5174 7576,5097 6912,4919 7090,4255 7754,4433 7576,5097 "/>
    <polygon id="1234567891011121314151617181920212223242526272829303132333435363738" class="fil37" points="7598,5136 6874,4942 7068,4217 7792,4411 7598,5136 7554,5059 6950,4897 7112,4294 7716,4455 7554,5059 "/>
    <polygon id="123456789101112131415161718192021222324252627282930313233343536373839" class="fil38" points="7576,5097 6912,4919 7090,4255 7754,4433 7576,5097 7532,5021 6988,4875 7134,4332 7677,4477 7532,5021 "/>
    <polygon id="12345678910111213141516171819202122232425262728293031323334353637383940" class="fil39" points="7554,5059 6950,4897 7112,4294 7716,4455 7554,5059 7510,4983 7027,4853 7156,4370 7639,4500 7510,4983 "/>
    <polygon id="1234567891011121314151617181920212223242526272829303132333435363738394041" class="fil40" points="7532,5021 6988,4875 7134,4332 7677,4477 7532,5021 7488,4944 7065,4831 7178,4408 7601,4522 7488,4944 "/>
    <polygon id="123456789101112131415161718192021222324252627282930313233343536373839404142" class="fil41" points="7510,4983 7027,4853 7156,4370 7639,4500 7510,4983 7466,4906 7103,4809 7200,4447 7563,4544 7466,4906 "/>
    <polygon id="12345678910111213141516171819202122232425262728293031323334353637383940414243" class="fil9" points="7488,4944 7065,4831 7178,4408 7601,4522 7488,4944 7443,4868 7141,4787 7222,4485 7524,4566 7443,4868 "/>
    <polygon id="1234567891011121314151617181920212223242526272829303132333435363738394041424344" class="fil10" points="7466,4906 7103,4809 7200,4447 7563,4544 7466,4906 7421,4829 7180,4765 7245,4523 7486,4588 7421,4829 "/>
    <polygon id="123456789101112131415161718192021222324252627282930313233343536373839404142434445" class="fil42" points="7443,4868 7142,4787 7222,4485 7524,4566 7443,4868 7399,4791 7218,4743 7267,4561 7448,4610 7399,4791 "/>
    <polygon id="12345678910111213141516171819202122232425262728293031323334353637383940414243444546" class="fil43" points="7421,4829 7180,4765 7244,4523 7486,4588 7421,4829 7377,4753 7256,4721 7289,4600 7409,4632 7377,4753 "/>
    <polygon id="1234567891011121314151617181920212223242526272829303132333435363738394041424344454647" class="fil44" points="7399,4791 7218,4743 7267,4561 7448,4610 7399,4791 7355,4715 7295,4698 7311,4638 7371,4654 7355,4715 "/>
    <polygon id="123456789101112131415161718192021222324252627282930313233343536373839404142434445464748" class="fil45" points="7377,4753 7256,4721 7289,4600 7409,4632 7377,4753 7333,4676 7333,4676 7333,4676 7333,4676 7333,4676 "/>
    <polygon id="12345678910111213141516171819202122232425262728293031323334353637383940414243444546474849" class="fil46" points="7355,4715 7295,4698 7311,4638 7371,4654 7355,4715 "/>
   </g>
   <polygon id="1234567891011121314151617181920212223242526272829303132333435363738394041424344454647484950" class="fil1 str2" points="7168,6060 6804,5963 6972,5350 7350,5117 7524,4411 7301,4052 7519,3292 7884,3390 "/>
  </g>
  <g>
   <path class="fil47" style="mask:url(#id2)" d="M8040 5156c-27,2 -61,-2 -100,-12 -207,-56 -266,-251 -211,-459l39 -146 -55 -15 172 -161 68 226 -55 -15 -39 146c-46,174 34,350 181,436z"/>
   <path id="1" class="fil48 str3" d="M8040 5156c-27,2 -61,-2 -100,-12 -207,-56 -266,-251 -211,-459l39 -146 -55 -15 172 -161 68 226 -55 -15 -39 146c-46,174 34,350 181,436z"/>
  </g>
  <g>
   <path class="fil49" d="M4246 4025l-106 -26 76 -83 30 109zm-41 -19l-20 -5 0 -1 0 -1 0 0 0 0 0 0 0 0 0 0 0 0 0 0 0 0 0 0 0 0 0 0 0 0 0 0 0 0 0 0 0 0 0 0 0 0 0 0 0 0 0 0 0 0 1 0 1 0 1 0 1 0 1 0 1 0 1 0 1 0 1 0 1 0 0 0 0 0 0 0 0 0 0 0 0 0 0 0 0 0 0 0 0 0 0 0 0 0 0 0 0 0 0 0 0 0 0 0 0 0 0 0 0 0 0 0 0 0 0 1 0 1 0 1 0 1 0 1 0 1 0 1 0 1zm-95 799l-21 0 0 0 0 -25 0 -25 0 -25 1 -25 1 -25 1 -25 1 -25 1 -25 2 -25 2 -25 2 -25 2 -25 2 -25 3 -25 3 -25 3 -25 3 -25 3 -25 3 -25 4 -25 4 -25 4 -25 4 -25 4 -25 5 -25 5 -25 5 -25 5 -25 5 -25 6 -25 6 -25 6 -25 20 5 -6 25 -6 25 -5 25 -5 25 -5 25 -5 25 -5 25 -5 25 -4 25 -4 25 -4 25 -4 25 -4 25 -3 25 -3 25 -3 25 -3 25 -3 25 -3 25 -2 25 -2 25 -2 25 -2 25 -2 25 -1 25 -1 25 -1 25 -1 25 -1 25 0 25 0 25 0 25 0 0zm0 0l-21 0 0 0 0 0 0 0 0 0 0 0 0 0 0 0 10 0 0 0 0 0 0 0 0 0 0 0 0 0 0 0 0 0 0 0 0 0 0 0 0 0 0 0 0 0 0 0 0 0 0 0 0 0 0 0 0 0 0 0 0 0 0 0 0 0 0 0 0 0 0 0 0 0 0 0 0 0 0 0 0 0 0 0 0 0 0 0 0 0 0 0 0 0 0 0 0 0 0 0 0 0 0 0 0 0 0 0 0 0 0 0 0 0 0 0 10 0 0 0 0 0 0 0 0 0 0 0 0 0 0 0zm-21 0l21 0 0 1 0 1 0 1 0 1 0 1 0 0 0 0 0 0 0 0 0 0 0 0 0 0 0 0 0 0 0 0 0 0 0 0 0 0 0 0 0 0 0 0 0 0 0 0 0 0 0 0 0 0 0 0 -1 0 -1 0 -1 0 -1 0 -1 0 -1 0 -1 0 -1 0 -1 0 -1 0 0 0 0 0 0 0 0 0 0 0 0 0 0 0 0 0 0 0 0 0 0 0 0 0 0 0 0 0 0 0 0 0 0 0 0 0 0 0 0 0 0 0 0 0 0 -1 0 -1 0 -1 0 -1 0 -1z"/>
  </g>
  <path class="fil49" d="M4628 4384c0,41 -12,75 -35,102 -25,28 -57,41 -98,41 -26,0 -50,-6 -71,-20 -22,-13 -38,-32 -48,-55 -9,-22 -14,-44 -14,-65 0,-43 11,-78 34,-105 24,-29 57,-43 99,-43 41,0 74,14 98,42 23,26 35,61 35,102zm-39 -17c-2,-28 -11,-50 -26,-66 -18,-20 -40,-30 -68,-30 -27,0 -50,9 -68,28 -15,15 -24,38 -26,68l188 0zm0 33l-189 0c2,26 10,48 25,66 17,20 40,30 69,30 28,0 50,-9 67,-28 16,-17 25,-40 27,-68z"/>
  <path id="1" class="fil49" d="M4660 4600l0 -139 52 0c11,0 19,1 26,4 6,3 11,7 15,13 4,6 5,12 5,18 0,6 -2,12 -5,17 -3,5 -8,10 -15,13 8,3 15,7 19,13 4,6 7,13 7,21 0,7 -1,13 -4,18 -3,6 -6,10 -10,13 -4,3 -9,5 -15,7 -6,2 -14,2 -22,2l-53 0zm18 -81l30 0c8,0 14,-1 18,-2 5,-1 8,-4 11,-7 2,-3 4,-7 4,-12 0,-5 -1,-9 -3,-12 -2,-3 -5,-6 -9,-7 -4,-1 -11,-2 -21,-2l-28 0 0 42zm0 64l35 0c6,0 10,0 12,-1 4,-1 8,-2 11,-4 3,-2 5,-4 7,-8 2,-3 3,-7 3,-12 0,-5 -1,-10 -4,-13 -3,-4 -6,-7 -11,-8 -5,-2 -12,-2 -20,-2l-32 0 0 48z"/>
  <g>
   <path class="fil49" d="M7427 4817l0 -21 1 0 1 0 1 0 1 0 1 0 0 0 0 0 0 0 0 0 0 0 0 0 0 0 0 0 0 0 0 0 0 0 0 0 0 0 0 0 0 0 0 0 0 0 0 0 0 0 0 0 0 0 0 0 0 1 0 1 0 1 0 1 0 1 0 1 0 1 0 1 0 1 0 1 0 0 0 0 0 0 0 0 0 0 0 0 0 0 0 0 0 0 0 0 0 0 0 0 0 0 0 0 0 0 0 0 0 0 0 0 0 0 0 0 0 0 0 0 -1 0 -1 0 -1 0 -1 0 -1 0zm-3638 -21l3638 0 0 21 -3638 0 0 -21zm9 65l-99 -54 99 -54 0 109zm-9 -65l0 21 -1 0 -1 0 -1 0 -1 0 -1 0 0 0 0 0 0 0 0 0 0 0 0 0 0 0 0 0 0 0 0 0 0 0 0 0 0 0 0 0 0 0 0 0 0 0 0 0 0 0 0 0 0 0 0 0 0 -1 0 -1 0 -1 0 -1 0 -1 0 -1 0 -1 0 -1 0 -1 0 -1 0 0 0 0 0 0 0 0 0 0 0 0 0 0 0 0 0 0 0 0 0 0 0 0 0 0 0 0 0 0 0 0 0 0 0 0 0 0 0 0 0 0 0 0 1 0 1 0 1 0 1 0 1 0z"/>
  </g>
  <path class="fil49" d="M5335 5268l93 -125 -82 -115 38 0 44 62c9,13 16,23 19,30 5,-9 12,-18 19,-27l48 -64 35 0 -85 113 91 127 -39 0 -61 -86c-3,-5 -7,-10 -11,-16 -5,9 -9,15 -11,18l-60 84 -38 0z"/>
  <g>
   <path class="fil47" style="mask:url(#id4)" d="M3659 1741l186 233 6 -127c202,-9 347,45 439,160l-64 96 259 -90 -9 -301 -57 93c-170,-141 -238,-180 -552,-204l10 -96 -218 236z"/>
   <path id="1" class="fil48 str3" d="M3659 1741l186 233 6 -127c202,-9 347,45 439,160l-64 96 259 -90 -9 -301 -57 93c-170,-141 -238,-180 -552,-204l10 -96 -218 236z"/>
  </g>
  <g>
   <path class="fil49" d="M1930 4802l21 0 0 1 0 1 0 1 0 1 0 1 0 0 0 0 0 0 0 0 0 0 0 0 0 0 0 0 0 0 0 0 0 0 0 0 0 0 0 0 0 0 0 0 0 0 0 0 0 0 0 0 0 0 0 0 -1 0 -1 0 -1 0 -1 0 -1 0 -1 0 -1 0 -1 0 -1 0 -1 0 0 0 0 0 0 0 0 0 0 0 0 0 0 0 0 0 0 0 0 0 0 0 0 0 0 0 0 0 0 0 0 0 0 0 0 0 0 0 0 0 0 0 0 0 0 -1 0 -1 0 -1 0 -1 0 -1zm21 -2012l0 2012 -21 0 0 -2012 21 0zm-65 9l54 -99 54 99 -109 0zm65 -9l-21 0 0 -1 0 -1 0 -1 0 -1 0 -1 0 0 0 0 0 0 0 0 0 0 0 0 0 0 0 0 0 0 0 0 0 0 0 0 0 0 0 0 0 0 0 0 0 0 0 0 0 0 0 0 0 0 0 0 1 0 1 0 1 0 1 0 1 0 1 0 1 0 1 0 1 0 1 0 0 0 0 0 0 0 0 0 0 0 0 0 0 0 0 0 0 0 0 0 0 0 0 0 0 0 0 0 0 0 0 0 0 0 0 0 0 0 0 0 0 0 0 0 0 1 0 1 0 1 0 1 0 1z"/>
  </g>
  <path class="fil49" d="M1982 3515l0 -30 123 -154c9,-11 17,-21 25,-29l-134 0 0 -28 172 0 0 28 -135 167 -15 17 154 0 0 28 -190 0z"/>
  <g>
   <path class="fil47" style="mask:url(#id6)" d="M3693 2232l181 181 -90 0 0 196 181 0 0 -90 181 181 -181 181 0 -90 -181 0 0 196 90 0 -181 181 -181 -181 90 0 0 -196 -181 0 0 90 -181 -181 181 -181 0 90 181 0 0 -196 -90 0 181 -181zm90 90m45 90m-45 98m90 98m90 -45m90 45m0 181m-90 45m-90 -45m-90 98m45 98m-45 90m-181 0m-45 -90m45 -98m-90 -98m-90 45m-90 -45m0 -181m90 -45m90 45m90 -98m-45 -98m45 -90"/>
   <path id="1" class="fil48 str3" d="M3693 2232l181 181 -90 0 0 196 181 0 0 -90 181 181 -181 181 0 -90 -181 0 0 196 90 0 -181 181 -181 -181 90 0 0 -196 -181 0 0 90 -181 -181 181 -181 0 90 181 0 0 -196 -90 0 181 -181zm90 90m45 90m-45 98m90 98m90 -45m90 45m0 181m-90 45m-90 -45m-90 98m45 98m-45 90m-181 0m-45 -90m45 -98m-90 -98m-90 45m-90 -45m0 -181m90 -45m90 45m90 -98m-45 -98m45 -90"/>
  </g>
  <path class="fil50" d="M3971 1796l82 -113 18 5 18 140 -118 -32zm27 -9l70 19 -8 -79c-1,-12 -2,-21 -2,-28 -4,7 -8,15 -13,22l-47 66z"/>
  <path id="1" class="fil50" d="M4234 1799c-5,19 -14,33 -28,42 -14,10 -31,12 -49,7 -12,-3 -22,-9 -30,-17 -8,-9 -13,-19 -15,-31 -2,-11 -1,-22 2,-31 5,-20 15,-34 28,-43 14,-10 31,-12 50,-7 19,5 32,15 39,31 7,15 8,32 3,51zm-15 -12c2,-13 1,-24 -4,-33 -6,-11 -15,-18 -27,-22 -12,-3 -24,-2 -34,4 -9,5 -15,14 -20,28l85 23zm-4 15l-85 -23c-2,12 -1,23 4,33 5,11 15,19 28,22 12,3 24,2 34,-4 9,-6 16,-15 21,-28z"/>
  <path id="12" class="fil48 str4" d="M3971 1796l82 -113 18 5 18 140 -118 -32zm27 -9l70 19 -8 -79c-1,-12 -2,-21 -2,-28 -4,7 -8,15 -13,22l-47 66z"/>
  <path id="123" class="fil48 str4" d="M4234 1799c-5,19 -14,33 -28,42 -14,10 -31,12 -49,7 -12,-3 -22,-9 -30,-17 -8,-9 -13,-19 -15,-31 -2,-11 -1,-22 2,-31 5,-20 15,-34 28,-43 14,-10 31,-12 50,-7 19,5 32,15 39,31 7,15 8,32 3,51zm-15 -12c2,-13 1,-24 -4,-33 -6,-11 -15,-18 -27,-22 -12,-3 -24,-2 -34,4 -9,5 -15,14 -20,28l85 23zm-4 15l-85 -23c-2,12 -1,23 4,33 5,11 15,19 28,22 12,3 24,2 34,-4 9,-6 16,-15 21,-28z"/>
  <polygon class="fil50" points="3724,1767 3724,1715 3883,1715 3883,1767 "/>
  <polygon id="1" class="fil48 str4" points="3724,1767 3724,1715 3883,1715 3883,1767 "/>
  <polygon class="fil50" points="4352,2018 4352,1945 4279,1945 4279,1914 4352,1914 4352,1841 4384,1841 4384,1914 4457,1914 4457,1945 4384,1945 4384,2018 "/>
  <polygon id="1" class="fil48 str4" points="4352,2018 4352,1945 4279,1945 4279,1914 4352,1914 4352,1841 4384,1841 4384,1914 4457,1914 4457,1945 4384,1945 4384,2018 "/>
  <polygon class="fil50" points="3611,3075 3611,3023 3770,3023 3770,3075 "/>
  <polygon id="1" class="fil48 str4" points="3611,3075 3611,3023 3770,3023 3770,3075 "/>
  <polygon class="fil50" points="3911,2725 3911,2673 4070,2673 4070,2725 "/>
  <polygon id="1" class="fil48 str4" points="3911,2725 3911,2673 4070,2673 4070,2725 "/>
  <polygon class="fil50" points="3680,2466 3680,2392 3607,2392 3607,2361 3680,2361 3680,2288 3711,2288 3711,2361 3784,2361 3784,2392 3711,2392 3711,2466 "/>
  <polygon id="1" class="fil48 str4" points="3680,2466 3680,2392 3607,2392 3607,2361 3680,2361 3680,2288 3711,2288 3711,2361 3784,2361 3784,2392 3711,2392 3711,2466 "/>
  <polygon class="fil50" points="3366,2785 3366,2711 3293,2711 3293,2680 3366,2680 3366,2607 3397,2607 3397,2680 3470,2680 3470,2711 3397,2711 3397,2785 "/>
  <polygon id="1" class="fil48 str4" points="3366,2785 3366,2711 3293,2711 3293,2680 3366,2680 3366,2607 3397,2607 3397,2680 3470,2680 3470,2711 3397,2711 3397,2785 "/>
  <path class="fil50" d="M4154 2754l50 -130 19 0 53 130 -122 0zm24 -15l72 0 -28 -74c-4,-11 -7,-20 -9,-27 -2,8 -4,16 -7,25l-28 76z"/>
  <path id="1" class="fil50" d="M4277 2754l50 -68 -44 -62 21 0 24 33c5,7 8,12 10,16 3,-5 6,-10 10,-15l26 -35 19 0 -46 61 49 69 -21 0 -33 -46c-2,-3 -4,-6 -6,-9 -3,5 -5,8 -6,10l-33 45 -21 0z"/>
  <path id="12" class="fil48 str4" d="M4154 2754l50 -130 19 0 53 130 -122 0zm24 -15l72 0 -28 -74c-4,-11 -7,-20 -9,-27 -2,8 -4,16 -7,25l-28 76z"/>
  <path id="123" class="fil48 str4" d="M4277 2754l50 -68 -44 -62 21 0 24 33c5,7 8,12 10,16 3,-5 6,-10 10,-15l26 -35 19 0 -46 61 49 69 -21 0 -33 -46c-2,-3 -4,-6 -6,-9 -3,5 -5,8 -6,10l-33 45 -21 0z"/>
  <path class="fil50" d="M3563 2207l50 -130 19 0 53 130 -122 0zm24 -15l72 0 -28 -74c-4,-11 -7,-20 -9,-27 -2,8 -4,16 -7,25l-28 76z"/>
  <path id="1" class="fil50" d="M3688 2207l0 -16 67 -83c5,-6 9,-11 14,-15l-73 0 0 -15 93 0 0 15 -73 90 -8 9 83 0 0 15 -103 0z"/>
  <path id="12" class="fil48 str4" d="M3563 2207l50 -130 19 0 53 130 -122 0zm24 -15l72 0 -28 -74c-4,-11 -7,-20 -9,-27 -2,8 -4,16 -7,25l-28 76z"/>
  <path id="123" class="fil48 str4" d="M3688 2207l0 -16 67 -83c5,-6 9,-11 14,-15l-73 0 0 -15 93 0 0 15 -73 90 -8 9 83 0 0 15 -103 0z"/>
  <path class="fil47 str3" d="M7942 5144l194 52c205,55 420,-67 476,-275l40 -148 110 30 -187 -260 -293 132 110 30 -40 148c-56,207 -203,348 -410,292z"/>
  <polygon class="fil50" points="8519,4813 8519,4739 8446,4739 8446,4708 8519,4708 8519,4635 8550,4635 8550,4708 8623,4708 8623,4739 8550,4739 8550,4813 "/>
  <polygon id="1" class="fil48 str4" points="8519,4813 8519,4739 8446,4739 8446,4708 8519,4708 8519,4635 8550,4635 8550,4708 8623,4708 8623,4739 8550,4739 8550,4813 "/>
  <polygon class="fil50" points="7803,4516 7803,4489 7883,4489 7883,4516 "/>
  <polygon id="1" class="fil48 str4" points="7803,4516 7803,4489 7883,4489 7883,4516 "/>
  <polygon class="fil50" points="8138,4447 8138,4332 8095,4332 8095,4316 8198,4316 8198,4332 8155,4332 8155,4447 "/>
  <path id="1" class="fil50" d="M8207 4335l0 -18 16 0 0 18 -16 0zm0 112l0 -94 16 0 0 94 -16 0z"/>
  <polygon id="12" class="fil50" points="8247,4447 8247,4316 8263,4316 8263,4447 "/>
  <path id="123" class="fil50" d="M8323 4432l2 14c-4,1 -9,1 -12,1 -6,0 -10,-1 -14,-3 -3,-2 -5,-4 -7,-7 -1,-3 -2,-9 -2,-19l0 -54 -12 0 0 -12 12 0 0 -23 16 -10 0 33 16 0 0 12 -16 0 0 55c0,5 0,7 1,9 1,1 1,2 3,3 1,1 3,1 5,1 2,0 4,0 7,-1z"/>
  <path id="1234" class="fil50" d="M8445 4447l-16 0 0 -102c-4,4 -9,7 -15,11 -6,4 -12,6 -17,8l0 -15c9,-4 17,-9 23,-15 7,-6 11,-12 14,-17l10 0 0 131z"/>
  <polygon id="12345" class="fil48 str4" points="8138,4447 8138,4332 8095,4332 8095,4316 8198,4316 8198,4332 8155,4332 8155,4447 "/>
  <path id="123456" class="fil48 str4" d="M8207 4335l0 -18 16 0 0 18 -16 0zm0 112l0 -94 16 0 0 94 -16 0z"/>
  <polygon id="1234567" class="fil48 str4" points="8247,4447 8247,4316 8263,4316 8263,4447 "/>
  <path id="12345678" class="fil48 str4" d="M8323 4432l2 14c-4,1 -9,1 -12,1 -6,0 -10,-1 -14,-3 -3,-2 -5,-4 -7,-7 -1,-3 -2,-9 -2,-19l0 -54 -12 0 0 -12 12 0 0 -23 16 -10 0 33 16 0 0 12 -16 0 0 55c0,5 0,7 1,9 1,1 1,2 3,3 1,1 3,1 5,1 2,0 4,0 7,-1z"/>
  <path id="123456789" class="fil48 str4" d="M8445 4447l-16 0 0 -102c-4,4 -9,7 -15,11 -6,4 -12,6 -17,8l0 -15c9,-4 17,-9 23,-15 7,-6 11,-12 14,-17l10 0 0 131z"/>
  <g>
   <path class="fil49" d="M6800 3468l106 26 -76 83 -30 -109zm41 19l20 5 0 1 0 1 0 0 0 0 0 0 0 0 0 0 0 0 0 0 0 0 0 0 0 0 0 0 0 0 0 0 0 0 0 0 0 0 0 0 0 0 0 0 0 0 0 0 0 0 -1 0 -1 0 -1 0 -1 0 -1 0 -1 0 -1 0 -1 0 -1 0 -1 0 0 0 0 0 0 0 0 0 0 0 0 0 0 0 0 0 0 0 0 0 0 0 0 0 0 0 0 0 0 0 0 0 0 0 0 0 0 0 0 0 0 0 0 0 0 -1 0 -1 0 -1 0 -1 0 -1 0 -1 0 -1 0 -1zm95 -799l21 0 0 0 0 25 0 25 0 25 -1 25 -1 25 -1 25 -1 25 -1 25 -2 25 -2 25 -2 25 -2 25 -2 25 -3 25 -3 25 -3 25 -3 25 -3 25 -3 25 -4 25 -4 25 -4 25 -4 25 -4 25 -5 25 -5 25 -5 25 -5 25 -5 25 -6 25 -6 25 -6 25 -20 -5 6 -25 6 -25 5 -25 5 -25 5 -25 5 -25 5 -25 5 -25 4 -25 4 -25 4 -25 4 -25 4 -25 3 -25 3 -25 3 -25 3 -25 3 -25 3 -25 2 -25 2 -25 2 -25 2 -25 2 -25 1 -25 1 -25 1 -25 1 -25 1 -25 0 -25 0 -25 0 -25 0 0zm0 0l21 0 0 0 0 0 0 0 0 0 0 0 0 0 0 0 -10 0 0 0 0 0 0 0 0 0 0 0 0 0 0 0 0 0 0 0 0 0 0 0 0 0 0 0 0 0 0 0 0 0 0 0 0 0 0 0 0 0 0 0 0 0 0 0 0 0 0 0 0 0 0 0 0 0 0 0 0 0 0 0 0 0 0 0 0 0 0 0 0 0 0 0 0 0 0 0 0 0 0 0 0 0 0 0 0 0 0 0 0 0 0 0 0 0 0 0 -10 0 0 0 0 0 0 0 0 0 0 0 0 0 0 0zm21 0l-21 0 0 -1 0 -1 0 -1 0 -1 0 -1 0 0 0 0 0 0 0 0 0 0 0 0 0 0 0 0 0 0 0 0 0 0 0 0 0 0 0 0 0 0 0 0 0 0 0 0 0 0 0 0 0 0 0 0 1 0 1 0 1 0 1 0 1 0 1 0 1 0 1 0 1 0 1 0 0 0 0 0 0 0 0 0 0 0 0 0 0 0 0 0 0 0 0 0 0 0 0 0 0 0 0 0 0 0 0 0 0 0 0 0 0 0 0 0 0 0 0 0 0 1 0 1 0 1 0 1 0 1z"/>
  </g>
  <path class="fil49" d="M6623 3001c0,41 -12,75 -35,102 -25,28 -57,41 -98,41 -26,0 -50,-6 -71,-20 -22,-13 -38,-32 -48,-55 -9,-22 -14,-44 -14,-65 0,-43 11,-78 34,-105 24,-29 57,-43 99,-43 41,0 74,14 98,42 23,26 35,61 35,102zm-39 -17c-2,-28 -11,-50 -26,-66 -18,-20 -40,-30 -68,-30 -27,0 -50,9 -68,28 -15,15 -24,38 -26,68l188 0zm0 33l-189 0c2,26 10,48 25,66 17,20 40,30 69,30 28,0 50,-9 67,-28 16,-17 25,-40 27,-68z"/>
  <path id="1" class="fil49" d="M6655 3217l0 -139 52 0c11,0 19,1 26,4 6,3 11,7 15,13 4,6 5,12 5,18 0,6 -2,12 -5,17 -3,5 -8,10 -15,13 8,3 15,7 19,13 4,6 7,13 7,21 0,7 -1,13 -4,18 -3,6 -6,10 -10,13 -4,3 -9,5 -15,7 -6,2 -14,2 -22,2l-53 0zm18 -81l30 0c8,0 14,-1 18,-2 5,-1 8,-4 11,-7 2,-3 4,-7 4,-12 0,-5 -1,-9 -3,-12 -2,-3 -5,-6 -9,-7 -4,-1 -11,-2 -21,-2l-28 0 0 42zm0 64l35 0c6,0 10,0 12,-1 4,-1 8,-2 11,-4 3,-2 5,-4 7,-8 2,-3 3,-7 3,-12 0,-5 -1,-10 -4,-13 -3,-4 -6,-7 -11,-8 -5,-2 -12,-2 -20,-2l-32 0 0 48z"/>
  <g>
   <path class="fil47" style="mask:url(#id8)" d="M2528 2757c-27,2 -61,-2 -100,-12 -207,-56 -266,-251 -211,-459l39 -146 -55 -15 172 -161 68 226 -55 -15 -39 146c-46,174 34,350 181,436z"/>
   <path id="1" class="fil48 str3" d="M2528 2757c-27,2 -61,-2 -100,-12 -207,-56 -266,-251 -211,-459l39 -146 -55 -15 172 -161 68 226 -55 -15 -39 146c-46,174 34,350 181,436z"/>
  </g>
  <path class="fil47 str3" d="M2430 2746l194 52c205,55 420,-67 476,-275l40 -148 110 30 -187 -260 -293 132 110 30 -40 148c-56,207 -203,348 -410,292z"/>
  <polygon class="fil50" points="3008,2414 3008,2341 2935,2341 2935,2310 3008,2310 3008,2237 3039,2237 3039,2310 3112,2310 3112,2341 3039,2341 3039,2414 "/>
  <polygon id="1" class="fil48 str4" points="3008,2414 3008,2341 2935,2341 2935,2310 3008,2310 3008,2237 3039,2237 3039,2310 3112,2310 3112,2341 3039,2341 3039,2414 "/>
  <polygon class="fil50" points="2291,2117 2291,2091 2372,2091 2372,2117 "/>
  <polygon id="1" class="fil48 str4" points="2291,2117 2291,2091 2372,2091 2372,2117 "/>
  <polygon class="fil50" points="2626,2048 2626,1933 2583,1933 2583,1918 2686,1918 2686,1933 2643,1933 2643,2048 "/>
  <path id="1" class="fil50" d="M2695 1936l0 -18 16 0 0 18 -16 0zm0 112l0 -94 16 0 0 94 -16 0z"/>
  <polygon id="12" class="fil50" points="2735,2048 2735,1918 2751,1918 2751,2048 "/>
  <path id="123" class="fil50" d="M2811 2034l2 14c-4,1 -9,1 -12,1 -6,0 -10,-1 -14,-3 -3,-2 -5,-4 -7,-7 -1,-3 -2,-9 -2,-19l0 -54 -12 0 0 -12 12 0 0 -23 16 -10 0 33 16 0 0 12 -16 0 0 55c0,5 0,7 1,9 1,1 1,2 3,3 1,1 3,1 5,1 2,0 4,0 7,-1z"/>
  <path id="1234" class="fil50" d="M2957 2033l0 15 -86 0c0,-4 0,-8 2,-11 2,-6 6,-12 11,-17 5,-6 12,-12 21,-20 14,-12 24,-21 29,-28 5,-7 7,-13 7,-19 0,-6 -2,-12 -7,-16 -5,-4 -10,-7 -18,-7 -8,0 -14,2 -18,7 -5,5 -7,11 -7,19l-16 -2c1,-12 5,-22 13,-28 7,-6 17,-10 30,-10 13,0 22,3 30,10 7,7 11,16 11,26 0,5 -1,10 -3,15 -2,5 -6,10 -11,16 -5,6 -13,13 -25,23 -10,8 -16,14 -18,16 -3,3 -5,6 -7,9l64 0z"/>
  <polygon id="12345" class="fil48 str4" points="2626,2048 2626,1933 2583,1933 2583,1918 2686,1918 2686,1933 2643,1933 2643,2048 "/>
  <path id="123456" class="fil48 str4" d="M2695 1936l0 -18 16 0 0 18 -16 0zm0 112l0 -94 16 0 0 94 -16 0z"/>
  <polygon id="1234567" class="fil48 str4" points="2735,2048 2735,1918 2751,1918 2751,2048 "/>
  <path id="12345678" class="fil48 str4" d="M2811 2034l2 14c-4,1 -9,1 -12,1 -6,0 -10,-1 -14,-3 -3,-2 -5,-4 -7,-7 -1,-3 -2,-9 -2,-19l0 -54 -12 0 0 -12 12 0 0 -23 16 -10 0 33 16 0 0 12 -16 0 0 55c0,5 0,7 1,9 1,1 1,2 3,3 1,1 3,1 5,1 2,0 4,0 7,-1z"/>
  <path id="123456789" class="fil48 str4" d="M2957 2033l0 15 -86 0c0,-4 0,-8 2,-11 2,-6 6,-12 11,-17 5,-6 12,-12 21,-20 14,-12 24,-21 29,-28 5,-7 7,-13 7,-19 0,-6 -2,-12 -7,-16 -5,-4 -10,-7 -18,-7 -8,0 -14,2 -18,7 -5,5 -7,11 -7,19l-16 -2c1,-12 5,-22 13,-28 7,-6 17,-10 30,-10 13,0 22,3 30,10 7,7 11,16 11,26 0,5 -1,10 -3,15 -2,5 -6,10 -11,16 -5,6 -13,13 -25,23 -10,8 -16,14 -18,16 -3,3 -5,6 -7,9l64 0z"/>
  <line class="fil1 str5" x1="7522" y1="3290" x2="10672" y2= "4134" />
  <line class="fil1 str5" x1="485" y1="3382" x2="3636" y2= "4226" />
  <g>
   <path class="fil47" style="mask:url(#id10)" d="M10491 3607l-229 178 84 23 -120 447 -84 -23 109 268 229 -178 -84 -23 120 -447 84 23 -109 -268zm-114 89m-72 100m-18 235m-102 212m12 123m169 45m72 -100m18 -235m102 -212m-12 -123"/>
   <path id="1" class="fil48 str3" d="M10491 3607l-229 178 84 23 -120 447 -84 -23 109 268 229 -178 -84 -23 120 -447 84 23 -109 -268zm-114 89m-72 100m-18 235m-102 212m12 123m169 45m72 -100m18 -235m102 -212m-12 -123"/>
  </g>
  <polygon class="fil50" points="10435,3883 10435,3809 10362,3809 10362,3778 10435,3778 10435,3705 10466,3705 10466,3778 10539,3778 10539,3809 10466,3809 10466,3883 "/>
  <polygon id="1" class="fil48 str4" points="10435,3883 10435,3809 10362,3809 10362,3778 10435,3778 10435,3705 10466,3705 10466,3778 10539,3778 10539,3809 10466,3809 10466,3883 "/>
  <polygon class="fil50" points="10217,4367 10217,4315 10376,4315 10376,4367 "/>
  <polygon id="1" class="fil48 str4" points="10217,4367 10217,4315 10376,4315 10376,4367 "/>
  <g>
   <path class="fil47" style="mask:url(#id12)" d="M834 3015l-229 178 84 23 -120 447 -84 -23 109 268 229 -178 -84 -23 120 -447 84 23 -109 -268zm-114 89m-72 100m-18 235m-102 212m12 123m169 45m72 -100m18 -235m102 -212m-12 -123"/>
   <path id="1" class="fil48 str3" d="M834 3015l-229 178 84 23 -120 447 -84 -23 109 268 229 -178 -84 -23 120 -447 84 23 -109 -268zm-114 89m-72 100m-18 235m-102 212m12 123m169 45m72 -100m18 -235m102 -212m-12 -123"/>
  </g>
  <polygon class="fil50" points="624,3820 624,3747 551,3747 551,3716 624,3716 624,3643 655,3643 655,3716 728,3716 728,3747 655,3747 655,3820 "/>
  <polygon id="1" class="fil48 str4" points="624,3820 624,3747 551,3747 551,3716 624,3716 624,3643 655,3643 655,3716 728,3716 728,3747 655,3747 655,3820 "/>
  <polygon class="fil50" points="704,3195 704,3143 863,3143 863,3195 "/>
  <polygon id="1" class="fil48 str4" points="704,3195 704,3143 863,3143 863,3195 "/>
  <path class="fil50" d="M10163 3447l0 -130 49 0c10,0 18,1 24,4 6,3 11,7 14,12 3,5 5,11 5,17 0,6 -2,11 -5,16 -3,5 -8,9 -14,12 8,2 14,6 18,12 4,6 6,12 6,20 0,6 -1,12 -4,17 -3,5 -6,9 -10,12 -4,3 -9,5 -14,6 -6,1 -13,2 -21,2l-50 0zm17 -76l28 0c8,0 13,-1 16,-2 4,-1 8,-3 10,-6 2,-3 3,-7 3,-11 0,-4 -1,-8 -3,-11 -2,-3 -5,-6 -9,-7 -4,-1 -10,-2 -20,-2l-26 0 0 39zm0 60l32 0c6,0 10,0 12,-1 4,-1 7,-2 10,-4 3,-2 5,-4 7,-7 2,-3 3,-7 3,-11 0,-5 -1,-9 -4,-13 -2,-4 -6,-6 -10,-8 -4,-1 -11,-2 -19,-2l-30 0 0 45z"/>
  <path id="1" class="fil50" d="M10348 3416l17 2c-3,10 -7,17 -14,23 -7,5 -16,8 -27,8 -14,0 -25,-4 -33,-13 -8,-8 -12,-20 -12,-36 0,-16 4,-28 12,-37 8,-9 19,-13 32,-13 13,0 23,4 31,13 8,9 12,21 12,36 0,1 0,2 0,4l-70 0c1,10 4,18 9,24 5,6 12,8 20,8 6,0 11,-2 15,-5 4,-3 7,-8 10,-15zm-53 -26l53 0c-1,-8 -3,-14 -6,-18 -5,-6 -12,-9 -20,-9 -7,0 -14,2 -19,7 -5,5 -8,12 -8,20z"/>
  <path id="12" class="fil50" d="M10384 3447l0 -94 14 0 0 13c7,-10 17,-16 30,-16 6,0 11,1 16,3 5,2 8,5 11,8 2,3 4,7 5,12 1,3 1,8 1,16l0 58 -16 0 0 -57c0,-6 -1,-11 -2,-15 -1,-3 -3,-6 -7,-8 -3,-2 -7,-3 -11,-3 -7,0 -13,2 -18,6 -5,4 -7,13 -7,25l0 52 -16 0z"/>
  <path id="123" class="fil50" d="M10547 3447l0 -12c-6,9 -15,14 -26,14 -8,0 -14,-2 -21,-6 -6,-4 -11,-10 -15,-17 -3,-7 -5,-16 -5,-26 0,-9 2,-18 5,-26 3,-8 8,-14 14,-18 6,-4 13,-6 21,-6 6,0 11,1 15,4 4,2 8,6 11,9l0 -47 16 0 0 130 -15 0zm-51 -47c0,12 3,21 8,27 5,6 11,9 18,9 7,0 13,-3 18,-9 5,-6 7,-14 7,-26 0,-13 -2,-22 -7,-28 -5,-6 -11,-9 -18,-9 -7,0 -13,3 -18,9 -5,6 -7,15 -7,27z"/>
  <path id="1234" class="fil50" d="M10693 3447l-16 0 0 -102c-4,4 -9,7 -15,11 -6,4 -12,6 -17,8l0 -15c9,-4 17,-9 23,-15 7,-6 11,-12 14,-17l10 0 0 131z"/>
  <path id="12345" class="fil48 str4" d="M10163 3447l0 -130 49 0c10,0 18,1 24,4 6,3 11,7 14,12 3,5 5,11 5,17 0,6 -2,11 -5,16 -3,5 -8,9 -14,12 8,2 14,6 18,12 4,6 6,12 6,20 0,6 -1,12 -4,17 -3,5 -6,9 -10,12 -4,3 -9,5 -14,6 -6,1 -13,2 -21,2l-50 0zm17 -76l28 0c8,0 13,-1 16,-2 4,-1 8,-3 10,-6 2,-3 3,-7 3,-11 0,-4 -1,-8 -3,-11 -2,-3 -5,-6 -9,-7 -4,-1 -10,-2 -20,-2l-26 0 0 39zm0 60l32 0c6,0 10,0 12,-1 4,-1 7,-2 10,-4 3,-2 5,-4 7,-7 2,-3 3,-7 3,-11 0,-5 -1,-9 -4,-13 -2,-4 -6,-6 -10,-8 -4,-1 -11,-2 -19,-2l-30 0 0 45z"/>
  <path id="123456" class="fil48 str4" d="M10348 3416l17 2c-3,10 -7,17 -14,23 -7,5 -16,8 -27,8 -14,0 -25,-4 -33,-13 -8,-8 -12,-20 -12,-36 0,-16 4,-28 12,-37 8,-9 19,-13 32,-13 13,0 23,4 31,13 8,9 12,21 12,36 0,1 0,2 0,4l-70 0c1,10 4,18 9,24 5,6 12,8 20,8 6,0 11,-2 15,-5 4,-3 7,-8 10,-15zm-53 -26l53 0c-1,-8 -3,-14 -6,-18 -5,-6 -12,-9 -20,-9 -7,0 -14,2 -19,7 -5,5 -8,12 -8,20z"/>
  <path id="1234567" class="fil48 str4" d="M10384 3447l0 -94 14 0 0 13c7,-10 17,-16 30,-16 6,0 11,1 16,3 5,2 8,5 11,8 2,3 4,7 5,12 1,3 1,8 1,16l0 58 -16 0 0 -57c0,-6 -1,-11 -2,-15 -1,-3 -3,-6 -7,-8 -3,-2 -7,-3 -11,-3 -7,0 -13,2 -18,6 -5,4 -7,13 -7,25l0 52 -16 0z"/>
  <path id="12345678" class="fil48 str4" d="M10547 3447l0 -12c-6,9 -15,14 -26,14 -8,0 -14,-2 -21,-6 -6,-4 -11,-10 -15,-17 -3,-7 -5,-16 -5,-26 0,-9 2,-18 5,-26 3,-8 8,-14 14,-18 6,-4 13,-6 21,-6 6,0 11,1 15,4 4,2 8,6 11,9l0 -47 16 0 0 130 -15 0zm-51 -47c0,12 3,21 8,27 5,6 11,9 18,9 7,0 13,-3 18,-9 5,-6 7,-14 7,-26 0,-13 -2,-22 -7,-28 -5,-6 -11,-9 -18,-9 -7,0 -13,3 -18,9 -5,6 -7,15 -7,27z"/>
  <path id="123456789" class="fil48 str4" d="M10693 3447l-16 0 0 -102c-4,4 -9,7 -15,11 -6,4 -12,6 -17,8l0 -15c9,-4 17,-9 23,-15 7,-6 11,-12 14,-17l10 0 0 131z"/>
  <path class="fil50" d="M369 4134l0 -130 49 0c10,0 18,1 24,4 6,3 11,7 14,12 3,5 5,11 5,17 0,6 -2,11 -5,16 -3,5 -8,9 -14,12 8,2 14,6 18,12 4,6 6,12 6,20 0,6 -1,12 -4,17 -3,5 -6,9 -10,12 -4,3 -9,5 -14,6 -6,1 -13,2 -21,2l-50 0zm17 -76l28 0c8,0 13,-1 16,-2 4,-1 8,-3 10,-6 2,-3 3,-7 3,-11 0,-4 -1,-8 -3,-11 -2,-3 -5,-6 -9,-7 -4,-1 -10,-2 -20,-2l-26 0 0 39zm0 60l32 0c6,0 10,0 12,-1 4,-1 7,-2 10,-4 3,-2 5,-4 7,-7 2,-3 3,-7 3,-11 0,-5 -1,-9 -4,-13 -2,-4 -6,-6 -10,-8 -4,-1 -11,-2 -19,-2l-30 0 0 45z"/>
  <path id="1" class="fil50" d="M554 4103l17 2c-3,10 -7,17 -14,23 -7,5 -16,8 -27,8 -14,0 -25,-4 -33,-13 -8,-8 -12,-20 -12,-36 0,-16 4,-28 12,-37 8,-9 19,-13 32,-13 13,0 23,4 31,13 8,9 12,21 12,36 0,1 0,2 0,4l-70 0c1,10 4,18 9,24 5,6 12,8 20,8 6,0 11,-2 15,-5 4,-3 7,-8 10,-15zm-53 -26l53 0c-1,-8 -3,-14 -6,-18 -5,-6 -12,-9 -20,-9 -7,0 -14,2 -19,7 -5,5 -8,12 -8,20z"/>
  <path id="12" class="fil50" d="M591 4134l0 -94 14 0 0 13c7,-10 17,-16 30,-16 6,0 11,1 16,3 5,2 8,5 11,8 2,3 4,7 5,12 1,3 1,8 1,16l0 58 -16 0 0 -57c0,-6 -1,-11 -2,-15 -1,-3 -3,-6 -7,-8 -3,-2 -7,-3 -11,-3 -7,0 -13,2 -18,6 -5,4 -7,13 -7,25l0 52 -16 0z"/>
  <path id="123" class="fil50" d="M753 4134l0 -12c-6,9 -15,14 -26,14 -8,0 -14,-2 -21,-6 -6,-4 -11,-10 -15,-17 -3,-7 -5,-16 -5,-26 0,-9 2,-18 5,-26 3,-8 8,-14 14,-18 6,-4 13,-6 21,-6 6,0 11,1 15,4 4,2 8,6 11,9l0 -47 16 0 0 130 -15 0zm-51 -47c0,12 3,21 8,27 5,6 11,9 18,9 7,0 13,-3 18,-9 5,-6 7,-14 7,-26 0,-13 -2,-22 -7,-28 -5,-6 -11,-9 -18,-9 -7,0 -13,3 -18,9 -5,6 -7,15 -7,27z"/>
  <path id="1234" class="fil50" d="M923 4118l0 15 -86 0c0,-4 0,-8 2,-11 2,-6 6,-12 11,-17 5,-6 12,-12 21,-20 14,-12 24,-21 29,-28 5,-7 7,-13 7,-19 0,-6 -2,-12 -7,-16 -5,-4 -10,-7 -18,-7 -8,0 -14,2 -18,7 -5,5 -7,11 -7,19l-16 -2c1,-12 5,-22 13,-28 7,-6 17,-10 30,-10 13,0 22,3 30,10 7,7 11,16 11,26 0,5 -1,10 -3,15 -2,5 -6,10 -11,16 -5,6 -13,13 -25,23 -10,8 -16,14 -18,16 -3,3 -5,6 -7,9l64 0z"/>
  <path id="12345" class="fil48 str4" d="M369 4134l0 -130 49 0c10,0 18,1 24,4 6,3 11,7 14,12 3,5 5,11 5,17 0,6 -2,11 -5,16 -3,5 -8,9 -14,12 8,2 14,6 18,12 4,6 6,12 6,20 0,6 -1,12 -4,17 -3,5 -6,9 -10,12 -4,3 -9,5 -14,6 -6,1 -13,2 -21,2l-50 0zm17 -76l28 0c8,0 13,-1 16,-2 4,-1 8,-3 10,-6 2,-3 3,-7 3,-11 0,-4 -1,-8 -3,-11 -2,-3 -5,-6 -9,-7 -4,-1 -10,-2 -20,-2l-26 0 0 39zm0 60l32 0c6,0 10,0 12,-1 4,-1 7,-2 10,-4 3,-2 5,-4 7,-7 2,-3 3,-7 3,-11 0,-5 -1,-9 -4,-13 -2,-4 -6,-6 -10,-8 -4,-1 -11,-2 -19,-2l-30 0 0 45z"/>
  <path id="123456" class="fil48 str4" d="M554 4103l17 2c-3,10 -7,17 -14,23 -7,5 -16,8 -27,8 -14,0 -25,-4 -33,-13 -8,-8 -12,-20 -12,-36 0,-16 4,-28 12,-37 8,-9 19,-13 32,-13 13,0 23,4 31,13 8,9 12,21 12,36 0,1 0,2 0,4l-70 0c1,10 4,18 9,24 5,6 12,8 20,8 6,0 11,-2 15,-5 4,-3 7,-8 10,-15zm-53 -26l53 0c-1,-8 -3,-14 -6,-18 -5,-6 -12,-9 -20,-9 -7,0 -14,2 -19,7 -5,5 -8,12 -8,20z"/>
  <path id="1234567" class="fil48 str4" d="M591 4134l0 -94 14 0 0 13c7,-10 17,-16 30,-16 6,0 11,1 16,3 5,2 8,5 11,8 2,3 4,7 5,12 1,3 1,8 1,16l0 58 -16 0 0 -57c0,-6 -1,-11 -2,-15 -1,-3 -3,-6 -7,-8 -3,-2 -7,-3 -11,-3 -7,0 -13,2 -18,6 -5,4 -7,13 -7,25l0 52 -16 0z"/>
  <path id="12345678" class="fil48 str4" d="M753 4134l0 -12c-6,9 -15,14 -26,14 -8,0 -14,-2 -21,-6 -6,-4 -11,-10 -15,-17 -3,-7 -5,-16 -5,-26 0,-9 2,-18 5,-26 3,-8 8,-14 14,-18 6,-4 13,-6 21,-6 6,0 11,1 15,4 4,2 8,6 11,9l0 -47 16 0 0 130 -15 0zm-51 -47c0,12 3,21 8,27 5,6 11,9 18,9 7,0 13,-3 18,-9 5,-6 7,-14 7,-26 0,-13 -2,-22 -7,-28 -5,-6 -11,-9 -18,-9 -7,0 -13,3 -18,9 -5,6 -7,15 -7,27z"/>
  <path id="123456789" class="fil48 str4" d="M923 4118l0 15 -86 0c0,-4 0,-8 2,-11 2,-6 6,-12 11,-17 5,-6 12,-12 21,-20 14,-12 24,-21 29,-28 5,-7 7,-13 7,-19 0,-6 -2,-12 -7,-16 -5,-4 -10,-7 -18,-7 -8,0 -14,2 -18,7 -5,5 -7,11 -7,19l-16 -2c1,-12 5,-22 13,-28 7,-6 17,-10 30,-10 13,0 22,3 30,10 7,7 11,16 11,26 0,5 -1,10 -3,15 -2,5 -6,10 -11,16 -5,6 -13,13 -25,23 -10,8 -16,14 -18,16 -3,3 -5,6 -7,9l64 0z"/>
 </g>
</svg>
